<?xml version="1.0" encoding="UTF-8" standalone="no"?>
<svg
   xmlns:dc="http://purl.org/dc/elements/1.1/"
   xmlns:cc="http://creativecommons.org/ns#"
   xmlns:rdf="http://www.w3.org/1999/02/22-rdf-syntax-ns#"
   xmlns:svg="http://www.w3.org/2000/svg"
   xmlns="http://www.w3.org/2000/svg"
   xmlns:sodipodi="http://sodipodi.sourceforge.net/DTD/sodipodi-0.dtd"
   xmlns:inkscape="http://www.inkscape.org/namespaces/inkscape"
   id="Calque_1"
   data-name="Calque 1"
   viewBox="0 0 533.97998 104.87849"
   version="1.1"
   sodipodi:docname="chaos-toolkit-full.svg"
   width="533.97998"
   height="104.87849"
   inkscape:version="1.0.1 (3bc2e813f5, 2020-09-07)">
  <metadata
     id="metadata957">
    <rdf:RDF>
      <cc:Work
         rdf:about="">
        <dc:format>image/svg+xml</dc:format>
        <dc:type
           rdf:resource="http://purl.org/dc/dcmitype/StillImage" />
        <dc:title>chaos-toolkit-full</dc:title>
      </cc:Work>
    </rdf:RDF>
  </metadata>
  <sodipodi:namedview
     pagecolor="#ffffff"
     bordercolor="#666666"
     borderopacity="1"
     objecttolerance="10"
     gridtolerance="10"
     guidetolerance="10"
     inkscape:pageopacity="0"
     inkscape:pageshadow="2"
     inkscape:window-width="1920"
     inkscape:window-height="1016"
     id="namedview955"
     showgrid="false"
     inkscape:zoom="1.03125"
     inkscape:cx="267.45"
     inkscape:cy="62.675047"
     inkscape:window-x="0"
     inkscape:window-y="27"
     inkscape:window-maximized="1"
     inkscape:current-layer="Calque_1" />
  <defs
     id="defs916">
    <style
       id="style914">.cls-1{fill:#363f45;}.cls-2{fill:#feb41c;}.cls-3{fill:#5e7c88;}.cls-4{fill:#4b5f6d;}.cls-5{fill:#24221f;}</style>
  </defs>
  <title
     id="title918">chaos-toolkit-full</title>
  <path
     class="cls-1"
     d="m 170.25,77.975047 q -9,0 -14.08,-6.15 -5.08,-6.15 -5,-18.13 0,-12 5,-18.39 5,-6.39 14.08,-6.43 a 16.61,16.61 0 0 1 16.32,10.34 l -4.63,2.79 a 13.11,13.11 0 0 0 -4.35,-5.88 11.79,11.79 0 0 0 -7.34,-2.21 12.42,12.42 0 0 0 -5.48,1.16 11.17,11.17 0 0 0 -4.08,3.31 15.51,15.51 0 0 0 -2.55,5.11 23.3,23.3 0 0 0 -0.88,6.66 v 7.09 q 0,7.38 3.4,11.54 3.4,4.16 9.59,4.16 a 12.11,12.11 0 0 0 7.61,-2.35 13.52,13.52 0 0 0 4.49,-6.22 l 4.56,2.86 a 18.26,18.26 0 0 1 -6.46,7.88 17.71,17.71 0 0 1 -10.2,2.86 z"
     id="path920" />
  <path
     class="cls-1"
     d="m 195.2,26.835047 h 5.44 v 20.84 h 0.28 a 11.49,11.49 0 0 1 3.63,-4.71 10.27,10.27 0 0 1 6.29,-1.75 11,11 0 0 1 8.61,3.5 q 3.15,3.51 3.16,9.9 v 22.5 h -5.44 v -21.6 q 0,-9.47 -8,-9.47 a 12.28,12.28 0 0 0 -3.16,0.41 9.15,9.15 0 0 0 -2.75,1.22 6,6 0 0 0 -1.94,2.08 5.89,5.89 0 0 0 -0.72,3 v 24.39 h -5.44 z"
     id="path922" />
  <path
     class="cls-1"
     d="m 259.33,77.155047 c -2,0 -3.51,-0.54 -4.39,-1.63 a 8.08,8.08 0 0 1 -1.66,-4.08 h -0.34 a 9.16,9.16 0 0 1 -3.81,4.9 11.83,11.83 0 0 1 -6.33,1.63 c -3.72,0 -6.6,-0.95 -8.67,-2.86 a 10,10 0 0 1 -3.09,-7.75 8.82,8.82 0 0 1 3.64,-7.61 q 3.63,-2.65 11.32,-2.66 h 6.94 v -3.42 a 7.6,7.6 0 0 0 -2.05,-5.72 q -2,-2 -6.25,-2 a 9.45,9.45 0 0 0 -5.34,1.43 11.68,11.68 0 0 0 -3.57,3.81 l -3.28,-3.07 a 12.31,12.31 0 0 1 4.55,-4.86 14.35,14.35 0 0 1 7.89,-2 q 6.39,0 9.93,3.12 3.54,3.12 3.53,8.69 v 19.27 h 4 v 4.82 z m -15.64,-3.8 a 13.77,13.77 0 0 0 3.74,-0.48 9.26,9.26 0 0 0 2.92,-1.36 6.65,6.65 0 0 0 1.9,-2 4.82,4.82 0 0 0 0.69,-2.52 v -5.82 h -7.21 c -3.13,0 -5.41,0.46 -6.84,1.36 a 4.4,4.4 0 0 0 -2.14,3.95 v 1.43 a 4.74,4.74 0 0 0 1.87,4 8.18,8.18 0 0 0 5.07,1.44 z"
     id="path924" />
  <path
     class="cls-1"
     d="m 283.45,77.975047 a 15.82,15.82 0 0 1 -6.46,-1.29 13.89,13.89 0 0 1 -5,-3.71 17.44,17.44 0 0 1 -3.23,-5.78 25.25,25.25 0 0 1 0,-15.13 17.49,17.49 0 0 1 3.23,-5.81 13.89,13.89 0 0 1 5,-3.71 15.82,15.82 0 0 1 6.46,-1.29 15.53,15.53 0 0 1 6.42,1.29 14.25,14.25 0 0 1 5,3.71 17.05,17.05 0 0 1 3.27,5.81 25.46,25.46 0 0 1 0,15.13 17,17 0 0 1 -3.27,5.78 14.25,14.25 0 0 1 -5,3.71 15.53,15.53 0 0 1 -6.42,1.29 z m 0,-4.83 a 9.86,9.86 0 0 0 7.21,-2.72 c 1.85,-1.81 2.78,-4.58 2.78,-8.29 v -5 c 0,-3.71 -0.93,-6.48 -2.78,-8.29 a 10.92,10.92 0 0 0 -14.42,0 c -1.86,1.81 -2.79,4.58 -2.79,8.29 v 5 c 0,3.71 0.93,6.48 2.79,8.29 a 9.86,9.86 0 0 0 7.21,2.72 z"
     id="path926" />
  <path
     class="cls-1"
     d="m 318.76,77.975047 a 16.39,16.39 0 0 1 -8.2,-1.87 18.62,18.62 0 0 1 -5.67,-5 l 3.87,-3.13 a 15.15,15.15 0 0 0 4.56,4 11.86,11.86 0 0 0 5.85,1.4 8.63,8.63 0 0 0 5.4,-1.5 5.43,5.43 0 0 0 0.61,-7.72 q -1.32,-1.45 -4.79,-2 l -2.79,-0.41 a 23.27,23.27 0 0 1 -4.49,-1.06 12.4,12.4 0 0 1 -3.57,-1.9 8.19,8.19 0 0 1 -2.38,-3 9.73,9.73 0 0 1 -0.85,-4.21 10.11,10.11 0 0 1 1,-4.53 9.14,9.14 0 0 1 2.61,-3.23 11.45,11.45 0 0 1 4,-1.93 18.43,18.43 0 0 1 5,-0.65 15.47,15.47 0 0 1 7.17,1.5 16,16 0 0 1 5.07,4.14 l -3.71,3.29 a 10.69,10.69 0 0 0 -3.4,-3 11,11 0 0 0 -5.6,-1.29 7.78,7.78 0 0 0 -5.14,1.47 4.93,4.93 0 0 0 -1.73,4 4.17,4.17 0 0 0 1.73,3.74 13,13 0 0 0 5,1.7 l 2.72,0.41 q 5.85,0.88 8.3,3.37 a 8.85,8.85 0 0 1 2.45,6.49 10,10 0 0 1 -3.47,8 q -3.49,2.92 -9.55,2.92 z"
     id="path928" />
  <path
     class="cls-2"
     d="m 353.45,34.725047 v 42.43 h -5.71 v -42.43 h -15.1 v -5 h 35.9 v 5 z"
     id="path930" />
  <path
     class="cls-2"
     d="m 384.65,77.975047 a 15.82,15.82 0 0 1 -6.46,-1.29 14,14 0 0 1 -5,-3.71 17.44,17.44 0 0 1 -3.23,-5.78 25.46,25.46 0 0 1 0,-15.13 17.49,17.49 0 0 1 3.23,-5.81 14,14 0 0 1 5,-3.71 15.82,15.82 0 0 1 6.46,-1.29 15.61,15.61 0 0 1 6.43,1.29 14.43,14.43 0 0 1 5,3.71 17.2,17.2 0 0 1 3.26,5.81 25.25,25.25 0 0 1 0,15.13 17.15,17.15 0 0 1 -3.26,5.78 14.43,14.43 0 0 1 -5,3.71 15.61,15.61 0 0 1 -6.43,1.29 z m 0,-4.83 a 9.86,9.86 0 0 0 7.21,-2.72 c 1.86,-1.81 2.79,-4.58 2.79,-8.29 v -5 c 0,-3.71 -0.93,-6.48 -2.79,-8.29 a 10.92,10.92 0 0 0 -14.42,0 c -1.86,1.81 -2.78,4.58 -2.78,8.29 v 5 c 0,3.71 0.92,6.48 2.78,8.29 a 9.86,9.86 0 0 0 7.21,2.72 z"
     id="path932" />
  <path
     class="cls-2"
     d="m 422.73,77.975047 a 15.82,15.82 0 0 1 -6.46,-1.29 14,14 0 0 1 -5,-3.71 17.44,17.44 0 0 1 -3.23,-5.78 25.46,25.46 0 0 1 0,-15.13 17.49,17.49 0 0 1 3.23,-5.81 14,14 0 0 1 5,-3.71 15.82,15.82 0 0 1 6.46,-1.29 15.61,15.61 0 0 1 6.43,1.29 14.43,14.43 0 0 1 5,3.71 17.2,17.2 0 0 1 3.26,5.81 25.46,25.46 0 0 1 0,15.13 17.15,17.15 0 0 1 -3.26,5.78 14.43,14.43 0 0 1 -5,3.71 15.61,15.61 0 0 1 -6.43,1.29 z m 0,-4.83 a 9.86,9.86 0 0 0 7.21,-2.72 c 1.86,-1.81 2.79,-4.58 2.79,-8.29 v -5 c 0,-3.71 -0.93,-6.48 -2.79,-8.29 a 10.92,10.92 0 0 0 -14.42,0 c -1.86,1.81 -2.78,4.58 -2.78,8.29 v 5 c 0,3.71 0.92,6.48 2.78,8.29 a 9.86,9.86 0 0 0 7.21,2.72 z"
     id="path934" />
  <path
     class="cls-2"
     d="m 453.33,77.155047 a 5.6,5.6 0 0 1 -4.32,-1.59 5.8,5.8 0 0 1 -1.46,-4.05 v -44.68 h 5.44 v 45.5 h 5.17 v 4.82 z"
     id="path936" />
  <path
     class="cls-2"
     d="m 466.05,26.835047 h 5.4 v 31.9 h 0.27 l 5.37,-6 9.93,-10.67 h 6.59 l -13,13.87 14.28,21.21 h -6.6 l -11.57,-17.87 -5.27,5.4 v 12.51 h -5.4 z"
     id="path938" />
  <path
     class="cls-2"
     d="m 504.6,33.845047 a 3.31,3.31 0 0 1 -2.55,-0.85 3.14,3.14 0 0 1 -0.78,-2.21 v -0.89 a 3.16,3.16 0 0 1 0.78,-2.21 4.25,4.25 0 0 1 5.1,0 3.16,3.16 0 0 1 0.78,2.21 v 0.89 a 3.14,3.14 0 0 1 -0.78,2.21 3.31,3.31 0 0 1 -2.55,0.85 z m -2.72,8.23 h 5.44 v 35.08 h -5.44 z"
     id="path940" />
  <path
     class="cls-2"
     d="m 526.63,77.155047 a 5.56,5.56 0 0 1 -4.31,-1.59 5.9,5.9 0 0 1 -1.47,-4.17 v -24.5 h -5.78 v -4.82 h 3.27 a 3.17,3.17 0 0 0 2.41,-0.72 3.69,3.69 0 0 0 0.65,-2.48 v -6.53 h 4.89 v 9.73 h 7.69 v 4.82 h -7.69 v 25.44 h 7.16 v 4.82 z"
     id="path942" />
  <path
     class="cls-2"
     d="m 111.37,13.805047 a 77.77,77.77 0 0 1 18.52,75.55 l -74.69,-21.68 z"
     id="path944" />
  <path
     class="cls-3"
     d="M 74.1,2.6750475 A 67.5,67.5 0 0 1 104.05,20.815047 L 55.2,67.675047 39.09,1.9750475 a 67.45,67.45 0 0 1 35.01,0.7 z"
     id="path946" />
  <path
     class="cls-4"
     d="m 41.51,11.785047 13.69,55.89 -55.2,-16.06 a 57.47,57.47 0 0 1 41.51,-39.83 z"
     id="path948" />
  <path
     class="cls-1"
     d="m 9.74,54.405047 45.46,13.27 -34.18,32.760003 A 47.33,47.33 0 0 1 9.74,54.405047 Z"
     id="path950" />
  <path
     class="cls-5"
     d="m 55.2,67.675047 8.86,36.140003 A 37.27,37.27 0 0 1 28.34,93.425047 Z"
     id="path952" />
</svg>
