<?xml version="1.0" encoding="utf-8"?>
<!-- Generator: Adobe Illustrator 24.0.2, SVG Export Plug-In . SVG Version: 6.00 Build 0)  -->
<svg version="1.1" id="Layer_1" xmlns="http://www.w3.org/2000/svg" xmlns:xlink="http://www.w3.org/1999/xlink" x="0px" y="0px"
	 width="214.7px" height="29.7px" viewBox="0 0 214.7 29.7" style="enable-background:new 0 0 214.7 29.7;" xml:space="preserve">
<style type="text/css">
	.st0{fill:none;}
	.st1{fill-rule:evenodd;clip-rule:evenodd;fill:#00A4AA;}
	.st2{fill-rule:evenodd;clip-rule:evenodd;fill:#1A4869;}
	.st3{fill-rule:evenodd;clip-rule:evenodd;fill:#CA3433;}
</style>
<rect x="-242.4" y="-98.3" class="st0" width="699.5" height="224.3"/>
<g id="_1261840528">
	<g>
		<path class="st1" d="M27.2,18.1c0-2.9-2.2-5.5-5.4-5.5c-3,0-5.4,2.5-5.4,5.5c0,3.2,2.3,5.6,5.3,5.6C24.8,23.7,27.2,21.2,27.2,18.1
			z M10.2,29V0h6.5v9c1.7-1.8,3.9-2.5,6.2-2.5c5.6,0,10.8,4.2,10.8,11.5c0,6.7-4.3,11.8-11,11.8c-2.6,0-5.2-1.2-6.2-3.1h-0.1V29
			H10.2z"/>
		<path class="st1" d="M45.7,13.6c0-1.2-0.9-1.6-2-1.6c-1.1,0-1.8,0.6-1.8,1.4c0,1.2,1,1.7,4,2.5c5.1,1.4,6.7,3.4,6.7,6.5
			c0,4.5-3.8,7.3-8.7,7.3c-4.8,0-8.3-2.7-8.7-7.1h6.4c0.2,1.4,1.2,2,2.4,2c1.1,0,2.2-0.6,2.2-1.6c0-1.2-0.7-1.8-3.9-2.8
			c-5.4-1.6-6.8-3.8-6.8-6.3c0-4.2,4-7,8.3-7c4.6,0,7.9,2.5,8.2,6.7H45.7z"/>
		<path class="st1" d="M0.7,9.5v13c0,0,0,0,0,0.1c0,3.6,2.9,6.4,6.5,6.4v-6.4V9.5H0.7z"/>
	</g>
	<g>
		<path class="st2" d="M66.1,13.6c0-1.2-0.9-1.6-2-1.6c-1.1,0-1.8,0.6-1.8,1.4c0,1.2,1,1.7,4,2.5c5.1,1.4,6.7,3.4,6.7,6.5
			c0,4.5-3.9,7.3-8.7,7.3c-4.8,0-8.3-2.7-8.7-7.1H62c0.2,1.4,1.2,2,2.4,2c1.1,0,2.2-0.6,2.2-1.7c0-1.2-0.7-1.8-3.9-2.8
			c-5.4-1.6-6.8-3.8-6.8-6.3c0-4.2,4-7,8.3-7c4.6,0,7.9,2.5,8.2,6.7H66.1z"/>
		<path class="st2" d="M90.9,18.3c0-2.9-2.2-5.4-5.2-5.4c-2.8,0-5.1,2.5-5.1,5.4s2.3,5.4,5.2,5.4C88.7,23.7,90.9,21.2,90.9,18.3z
			 M85.7,29.7c-6.5,0-11.6-4.8-11.6-11.4c0-6.7,5.2-11.4,11.6-11.4c6.5,0,11.6,4.8,11.6,11.3C97.3,25,92.2,29.7,85.7,29.7z"/>
		<polygon class="st2" points="141,29 137.5,15.3 137.4,15.3 133.8,29 127.6,29 121.1,7.6 127.8,7.6 131,21.1 131.1,21.1 134.7,7.6 
			140.2,7.6 143.8,21.1 143.9,21.1 147.1,7.6 153.8,7.6 147.2,29 		"/>
		<path class="st2" d="M170.1,18.3c0-3-2.4-5.4-5.4-5.4c-2.9,0-5.2,2.4-5.2,5.5c0,3,2.4,5.4,5.3,5.4
			C167.8,23.8,170.1,21.4,170.1,18.3z M170.1,29v-2.3h-0.1c-0.9,1.9-3.5,3-6.3,3c-6.3,0-10.7-5-10.7-11.4c0-6.3,4.6-11.4,10.7-11.4
			c2.6,0,5,1,6.3,3h0.1V7.6h6.4V29H170.1z"/>
		<path class="st2" d="M208.3,15.9c-0.5-2.2-2.4-3.7-4.9-3.7c-2.3,0-4.3,1.4-4.8,3.7H208.3z M198.5,20.3c0.4,2.4,2.4,4.1,5,4.1
			c1.7,0,2.9-0.7,3.9-2h6.6c-2,4.7-5.9,7.4-10.5,7.4c-6.2,0-11.3-5-11.3-11.3c0-6.2,4.9-11.5,11.2-11.5c6.4,0,11.3,5.1,11.3,11.7
			c0,0.6,0,1.1-0.2,1.7H198.5z"/>
		<path class="st2" d="M184.9,9.9L184.9,9.9l-0.1-2.3h-6.1v14.5v0.3c0,3.6,2.9,6.5,6.5,6.5v-6.8v-4.8c0-2.5,1.3-3.9,5.1-4V6.9
			C187.9,6.9,186.1,7.6,184.9,9.9z"/>
		<path class="st2" d="M119.3,7.6h-1.6V0.4h-6.5v7.2h-5.6c0-1.4,0.5-2.3,2.4-2.3h0.4V0.4h-0.8c-6.1,0-8.5,2.3-8.5,6.7v0.5v4.9v9.6
			v0.3c0,3.6,2.9,6.5,6.5,6.5v-6.8v-9.6h5.6v9.6v0.3c0,3.6,2.9,6.5,6.5,6.5v-6.8v-9.6h3.1v0L119.3,7.6z"/>
	</g>
	<path class="st3" d="M4,8L4,8c2.2,0,4-1.8,4-4l0,0c0-2.2-1.8-4-4-4l0,0C1.8,0,0,1.8,0,4l0,0C0,6.2,1.8,8,4,8z"/>
</g>
</svg>
